<svg width="78" height="12" viewBox="0 0 78 12" fill="none" xmlns="http://www.w3.org/2000/svg">
<g clip-path="url(#clip0_55_69)">
<rect width="78" height="12" fill="none"/>
<path d="M53.326 4.5425C53.0573 4.5425 52.8103 4.49917 52.585 4.4125C52.364 4.3215 52.169 4.198 52 4.042L52.3055 3.626C52.4572 3.756 52.6197 3.85567 52.793 3.925C52.9707 3.99433 53.157 4.029 53.352 4.029C53.547 4.029 53.6965 3.98783 53.8005 3.9055C53.9088 3.82317 53.963 3.71483 53.963 3.5805C53.963 3.48517 53.9392 3.40717 53.8915 3.3465C53.8482 3.2815 53.7875 3.2295 53.7095 3.1905C53.6315 3.14717 53.5427 3.10383 53.443 3.0605L53.04 2.898C52.8883 2.83733 52.7475 2.768 52.6175 2.69C52.4875 2.60767 52.3835 2.508 52.3055 2.391C52.2275 2.274 52.1885 2.13317 52.1885 1.9685C52.1885 1.67383 52.3012 1.43983 52.5265 1.2665C52.7518 1.08883 53.0422 1 53.3975 1C53.6315 1 53.846 1.04117 54.041 1.1235C54.2403 1.20583 54.4072 1.30983 54.5415 1.4355L54.2295 1.832C54.1125 1.73667 53.9825 1.66083 53.8395 1.6045C53.6965 1.54383 53.5448 1.5135 53.3845 1.5135C53.2155 1.5135 53.0812 1.55033 52.9815 1.624C52.8862 1.69767 52.8385 1.7995 52.8385 1.9295C52.8385 2.05517 52.884 2.15267 52.975 2.222C53.066 2.287 53.1917 2.34983 53.352 2.4105L53.755 2.573C53.9327 2.638 54.0843 2.7095 54.21 2.7875C54.34 2.8655 54.4397 2.963 54.509 3.08C54.5783 3.197 54.613 3.3465 54.613 3.5285C54.613 3.71917 54.561 3.8925 54.457 4.0485C54.353 4.20017 54.2057 4.3215 54.015 4.4125C53.8243 4.49917 53.5947 4.5425 53.326 4.5425Z" fill="black"/>
<path d="M56.2764 4.4645V1.6175H55.2364V1.078H57.9599V1.6175H56.9264V4.4645H56.2764Z" fill="black"/>
<path d="M59.0172 4.4645V1.078H60.2392C60.4905 1.078 60.7159 1.1105 60.9152 1.1755C61.1189 1.23617 61.2792 1.34017 61.3962 1.4875C61.5175 1.63483 61.5782 1.8385 61.5782 2.0985C61.5782 2.32817 61.5197 2.52533 61.4027 2.69C61.2857 2.85467 61.1275 2.97817 60.9282 3.0605C60.7289 3.14283 60.5035 3.184 60.2522 3.184H59.6672V4.4645H59.0172ZM59.6672 2.69H60.1742C60.4385 2.69 60.6335 2.6445 60.7592 2.5535C60.8892 2.45817 60.9542 2.31517 60.9542 2.1245C60.9542 1.93383 60.8849 1.80167 60.7462 1.728C60.6119 1.65433 60.4212 1.6175 60.1742 1.6175H59.6672V2.69ZM61.0127 4.4645L60.1352 3.002L60.7007 2.8395L61.7147 4.4645H61.0127Z" fill="black"/>
<path d="M62.8144 4.4645V1.078H63.4644V4.4645H62.8144Z" fill="black"/>
<path d="M64.9167 4.4645V1.078H65.6187L66.7042 2.9175C66.7692 3.0215 66.8342 3.145 66.8992 3.288C66.9686 3.42667 67.0314 3.56533 67.0877 3.704H67.1137C67.1007 3.52633 67.0834 3.32917 67.0617 3.1125C67.0401 2.89583 67.0292 2.69217 67.0292 2.5015V1.078H67.6337V4.4645H66.9317L65.8462 2.625C65.7856 2.51233 65.7206 2.38667 65.6512 2.248C65.5819 2.10933 65.5191 1.97067 65.4627 1.832H65.4367C65.4541 2.00967 65.4714 2.209 65.4887 2.43C65.5104 2.64667 65.5212 2.85033 65.5212 3.041V4.4645H64.9167Z" fill="black"/>
<path d="M70.5446 4.5425C70.2239 4.5425 69.9336 4.47533 69.6736 4.341C69.4179 4.20667 69.2164 4.0095 69.0691 3.7495C68.9217 3.48517 68.8481 3.16233 68.8481 2.781C68.8481 2.40833 68.9239 2.08983 69.0756 1.8255C69.2316 1.55683 69.4396 1.35317 69.6996 1.2145C69.9639 1.0715 70.2586 1 70.5836 1C70.8349 1 71.0472 1.04117 71.2206 1.1235C71.3939 1.20583 71.5391 1.312 71.6561 1.442L71.3051 1.8255C71.2141 1.73883 71.1122 1.6695 70.9996 1.6175C70.8912 1.5655 70.7547 1.5395 70.5901 1.5395C70.2651 1.5395 70.0051 1.64783 69.8101 1.8645C69.6151 2.08117 69.5176 2.38667 69.5176 2.781C69.5176 3.158 69.6086 3.457 69.7906 3.678C69.9769 3.899 70.2477 4.0095 70.6031 4.0095C70.7157 4.0095 70.8176 3.9965 70.9086 3.9705C70.9996 3.9445 71.0776 3.90767 71.1426 3.86V3.119H70.4601V2.6185H71.7211V4.1525C71.5911 4.26517 71.4242 4.35833 71.2206 4.432C71.0212 4.50567 70.7959 4.5425 70.5446 4.5425Z" fill="black"/>
<path d="M53.6705 10.5425C53.3498 10.5425 53.0682 10.471 52.8255 10.328C52.5872 10.185 52.3987 9.98133 52.26 9.717C52.1213 9.44833 52.052 9.12983 52.052 8.7615C52.052 8.38883 52.1213 8.0725 52.26 7.8125C52.3987 7.54817 52.5872 7.34667 52.8255 7.208C53.0682 7.06933 53.3498 7 53.6705 7C53.9825 7 54.2598 7.0715 54.5025 7.2145C54.7452 7.35317 54.9337 7.5525 55.068 7.8125C55.2067 8.0725 55.276 8.38883 55.276 8.7615C55.276 9.12983 55.2067 9.44833 55.068 9.717C54.9337 9.98133 54.7452 10.185 54.5025 10.328C54.2598 10.471 53.9825 10.5425 53.6705 10.5425ZM53.6705 10.0355C53.8612 10.0355 54.0258 9.98567 54.1645 9.886C54.3032 9.782 54.4115 9.63467 54.4895 9.444C54.5675 9.25333 54.6065 9.02583 54.6065 8.7615C54.6065 8.38017 54.522 8.08333 54.353 7.871C54.184 7.65433 53.9565 7.546 53.6705 7.546C53.3802 7.546 53.1483 7.65433 52.975 7.871C52.806 8.08333 52.7215 8.38017 52.7215 8.7615C52.7215 9.02583 52.7605 9.25333 52.8385 9.444C52.9165 9.63467 53.0248 9.782 53.1635 9.886C53.3065 9.98567 53.4755 10.0355 53.6705 10.0355Z" fill="black"/>
<path d="M57.8547 10.5425C57.5817 10.5425 57.3391 10.4927 57.1267 10.393C56.9187 10.2933 56.7562 10.133 56.6392 9.912C56.5222 9.68667 56.4637 9.38767 56.4637 9.015V7.078H57.1137V9.028C57.1137 9.275 57.1441 9.47 57.2047 9.613C57.2654 9.75167 57.3521 9.85133 57.4647 9.912C57.5774 9.97267 57.7074 10.003 57.8547 10.003C58.0021 10.003 58.1299 9.97267 58.2382 9.912C58.3509 9.85133 58.4376 9.75167 58.4982 9.613C58.5632 9.47 58.5957 9.275 58.5957 9.028V7.078H59.2132V9.015C59.2132 9.38767 59.1547 9.68667 59.0377 9.912C58.9251 10.133 58.7669 10.2933 58.5632 10.393C58.3639 10.4927 58.1277 10.5425 57.8547 10.5425Z" fill="black"/>
<path d="M60.0134 10.4645L61.1964 7.078H61.9439L63.1269 10.4645H62.4444L61.8854 8.677C61.8291 8.495 61.7749 8.313 61.7229 8.131C61.6752 7.94467 61.6232 7.76267 61.5669 7.585H61.5409C61.4889 7.767 61.4369 7.949 61.3849 8.131C61.3372 8.313 61.2874 8.495 61.2354 8.677L60.6699 10.4645H60.0134ZM60.7154 9.5935V9.0865H62.4184V9.5935H60.7154Z" fill="black"/>
<path d="M64.0077 10.4645V7.078H65.2297C65.4811 7.078 65.7064 7.1105 65.9057 7.1755C66.1094 7.23617 66.2697 7.34017 66.3867 7.4875C66.5081 7.63483 66.5687 7.8385 66.5687 8.0985C66.5687 8.32817 66.5102 8.52533 66.3932 8.69C66.2762 8.85467 66.1181 8.97817 65.9187 9.0605C65.7194 9.14283 65.4941 9.184 65.2427 9.184H64.6577V10.4645H64.0077ZM64.6577 8.69H65.1647C65.4291 8.69 65.6241 8.6445 65.7497 8.5535C65.8797 8.45817 65.9447 8.31517 65.9447 8.1245C65.9447 7.93383 65.8754 7.80167 65.7367 7.728C65.6024 7.65433 65.4117 7.6175 65.1647 7.6175H64.6577V8.69ZM66.0032 10.4645L65.1257 9.002L65.6912 8.8395L66.7052 10.4645H66.0032Z" fill="black"/>
<path d="M68.3662 10.4645V7.6175H67.3262V7.078H70.0497V7.6175H69.0162V10.4645H68.3662Z" fill="black"/>
<path d="M71.107 10.4645V7.078H73.2845V7.6175H71.757V8.4365H73.057V8.9695H71.757V9.925H73.3495V10.4645H71.107Z" fill="black"/>
<path d="M75.1861 10.4645V7.6175H74.1461V7.078H76.8696V7.6175H75.8361V10.4645H75.1861Z" fill="black"/>
<path d="M54.7709 9.78973L54.4633 10.2803L55.426 10.8838L55.7336 10.3932L54.7709 9.78973Z" fill="black"/>
<path d="M0.814824 11V10.0185L2.61112 9.81481H2.92594L4.53705 10.0185V11H0.814824ZM1.75927 11L5.62964 0.944444H7.50001L11.2963 11H8.37038L5.48149 2.87037H5.77779L5.62964 3.48148L2.87038 11H1.75927ZM3.57408 8.18519V7.14815H8.62964V8.18519H3.57408ZM6.66668 11V10.0741L8.55557 9.85185H9.77779L11.9259 10.0741V11H6.66668ZM12.4983 11V10.0185L14.8872 9.81481H15.1649V11H12.4983ZM13.7761 11C13.8007 10.2346 13.8131 9.46296 13.8131 8.68519C13.8131 7.89506 13.8131 7.11111 13.8131 6.33333V5.66667C13.8131 4.87654 13.8131 4.09259 13.8131 3.31481C13.8131 2.52469 13.8007 1.74074 13.7761 0.962962H16.739C16.7143 1.72839 16.6958 2.50617 16.6835 3.2963C16.6835 4.07407 16.6835 4.8642 16.6835 5.66667V6.51852C16.6835 7.19753 16.6835 7.91975 16.6835 8.68519C16.6958 9.45062 16.7143 10.2222 16.739 11H13.7761ZM14.9057 2.14815L12.4983 1.94444V0.962962H18.1279V1.94444L15.6835 2.14815H14.9057ZM15.2946 11V9.98148H19.9057L19.6094 10.2407L20.0723 7.96296H21.5353L21.3316 11H15.2946ZM27.6234 11.2778C26.9321 11.2778 26.2592 11.1728 25.6049 10.963C24.9629 10.7407 24.3827 10.4136 23.8642 9.98148C23.358 9.53704 22.9568 8.98148 22.6605 8.31481C22.3642 7.64815 22.216 6.87037 22.216 5.98148C22.216 5.09259 22.3642 4.32099 22.6605 3.66667C22.9691 3 23.3765 2.44444 23.8827 2C24.3889 1.55556 24.9629 1.22222 25.6049 1C26.2592 0.777777 26.9321 0.666666 27.6234 0.666666C28.3271 0.666666 29 0.777777 29.6419 1C30.2839 1.22222 30.858 1.54938 31.3642 1.98148C31.8703 2.41358 32.2716 2.96296 32.5679 3.62963C32.8765 4.2963 33.0308 5.07407 33.0308 5.96296C33.0308 6.85185 32.8827 7.62963 32.5864 8.2963C32.2901 8.96296 31.8827 9.51852 31.3642 9.96296C30.858 10.3951 30.2839 10.7222 29.6419 10.9444C29 11.1667 28.3271 11.2778 27.6234 11.2778ZM27.6234 10.2407C28.0555 10.2407 28.4197 10.1358 28.716 9.92593C29.0123 9.71605 29.253 9.41975 29.4382 9.03704C29.6234 8.64198 29.7592 8.18519 29.8456 7.66667C29.9444 7.14815 29.9938 6.58642 29.9938 5.98148C29.9938 5.37654 29.9444 4.81481 29.8456 4.2963C29.7592 3.77778 29.6234 3.32716 29.4382 2.94444C29.253 2.54938 29.0123 2.24691 28.716 2.03704C28.4197 1.81481 28.0555 1.7037 27.6234 1.7037C27.2037 1.7037 26.8456 1.81481 26.5493 2.03704C26.253 2.24691 26.0061 2.54938 25.8086 2.94444C25.6234 3.32716 25.4876 3.77778 25.4012 4.2963C25.3148 4.80247 25.2716 5.3642 25.2716 5.98148C25.2716 6.57407 25.3148 7.1358 25.4012 7.66667C25.4876 8.18519 25.6234 8.64198 25.8086 9.03704C26.0061 9.41975 26.253 9.71605 26.5493 9.92593C26.8456 10.1358 27.2037 10.2407 27.6234 10.2407ZM39.4204 11.2778C38.5933 11.2778 37.8525 11.142 37.1982 10.8704C36.5439 10.5988 36.0315 10.1728 35.6612 9.59259C35.2908 9 35.1056 8.21605 35.1056 7.24074V5.5C35.1056 5.00617 35.1056 4.50617 35.1056 4C35.1056 3.49383 35.0994 2.98765 35.0871 2.48148C35.0871 1.96296 35.0748 1.45679 35.0501 0.962962H38.0315C38.0192 1.45679 38.0069 1.95679 37.9945 2.46296C37.9822 2.96914 37.976 3.47531 37.976 3.98148C37.976 4.48765 37.976 4.99383 37.976 5.5V6.72222C37.976 7.48765 38.0624 8.09877 38.2353 8.55556C38.4204 9 38.6859 9.32099 39.0315 9.51852C39.3896 9.71605 39.8278 9.81481 40.3464 9.81481C40.8402 9.81481 41.2599 9.70988 41.6056 9.5C41.9636 9.29012 42.2353 8.95679 42.4204 8.5C42.618 8.03086 42.7167 7.42593 42.7167 6.68519L42.7353 0.962962H43.939L43.9575 6.7037C43.9575 7.77778 43.7785 8.65432 43.4204 9.33333C43.0624 10 42.5439 10.4938 41.8649 10.8148C41.1859 11.1235 40.3711 11.2778 39.4204 11.2778ZM33.8464 1.94444V0.962962H39.4019V1.94444L36.9575 2.14815H36.2908L33.8464 1.94444ZM41.2538 1.94444V0.962962H45.2908V1.94444L43.5315 2.03704H43.0501L41.2538 1.94444Z" fill="black"/>
</g>
<defs>
<clipPath id="clip0_55_69">
<rect width="78" height="12" fill="white"/>
</clipPath>
</defs>
</svg>
