<svg width="79" height="48" viewBox="0 0 79 48" fill="none" xmlns="http://www.w3.org/2000/svg">
<rect width="79" height="48" fill="none" />
<path d="M54.326 22.5425C54.0573 22.5425 53.8103 22.4992 53.585 22.4125C53.364 22.3215 53.169 22.198 53 22.042L53.3055 21.626C53.4572 21.756 53.6197 21.8557 53.793 21.925C53.9707 21.9943 54.157 22.029 54.352 22.029C54.547 22.029 54.6965 21.9878 54.8005 21.9055C54.9088 21.8232 54.963 21.7148 54.963 21.5805C54.963 21.4852 54.9392 21.4072 54.8915 21.3465C54.8482 21.2815 54.7875 21.2295 54.7095 21.1905C54.6315 21.1472 54.5427 21.1038 54.443 21.0605L54.04 20.898C53.8883 20.8373 53.7475 20.768 53.6175 20.69C53.4875 20.6077 53.3835 20.508 53.3055 20.391C53.2275 20.274 53.1885 20.1332 53.1885 19.9685C53.1885 19.6738 53.3012 19.4398 53.5265 19.2665C53.7518 19.0888 54.0422 19 54.3975 19C54.6315 19 54.846 19.0412 55.041 19.1235C55.2403 19.2058 55.4072 19.3098 55.5415 19.4355L55.2295 19.832C55.1125 19.7367 54.9825 19.6608 54.8395 19.6045C54.6965 19.5438 54.5448 19.5135 54.3845 19.5135C54.2155 19.5135 54.0812 19.5503 53.9815 19.624C53.8862 19.6977 53.8385 19.7995 53.8385 19.9295C53.8385 20.0552 53.884 20.1527 53.975 20.222C54.066 20.287 54.1917 20.3498 54.352 20.4105L54.755 20.573C54.9327 20.638 55.0843 20.7095 55.21 20.7875C55.34 20.8655 55.4397 20.963 55.509 21.08C55.5783 21.197 55.613 21.3465 55.613 21.5285C55.613 21.7192 55.561 21.8925 55.457 22.0485C55.353 22.2002 55.2057 22.3215 55.015 22.4125C54.8243 22.4992 54.5947 22.5425 54.326 22.5425Z" fill="black"/>
<path d="M57.2764 22.4645V19.6175H56.2364V19.078H58.9599V19.6175H57.9264V22.4645H57.2764Z" fill="black"/>
<path d="M60.0172 22.4645V19.078H61.2392C61.4905 19.078 61.7159 19.1105 61.9152 19.1755C62.1189 19.2362 62.2792 19.3402 62.3962 19.4875C62.5175 19.6348 62.5782 19.8385 62.5782 20.0985C62.5782 20.3282 62.5197 20.5253 62.4027 20.69C62.2857 20.8547 62.1275 20.9782 61.9282 21.0605C61.7289 21.1428 61.5035 21.184 61.2522 21.184H60.6672V22.4645H60.0172ZM60.6672 20.69H61.1742C61.4385 20.69 61.6335 20.6445 61.7592 20.5535C61.8892 20.4582 61.9542 20.3152 61.9542 20.1245C61.9542 19.9338 61.8849 19.8017 61.7462 19.728C61.6119 19.6543 61.4212 19.6175 61.1742 19.6175H60.6672V20.69ZM62.0127 22.4645L61.1352 21.002L61.7007 20.8395L62.7147 22.4645H62.0127Z" fill="black"/>
<path d="M63.8144 22.4645V19.078H64.4644V22.4645H63.8144Z" fill="black"/>
<path d="M65.9167 22.4645V19.078H66.6187L67.7042 20.9175C67.7692 21.0215 67.8342 21.145 67.8992 21.288C67.9686 21.4267 68.0314 21.5653 68.0877 21.704H68.1137C68.1007 21.5263 68.0834 21.3292 68.0617 21.1125C68.0401 20.8958 68.0292 20.6922 68.0292 20.5015V19.078H68.6337V22.4645H67.9317L66.8462 20.625C66.7856 20.5123 66.7206 20.3867 66.6512 20.248C66.5819 20.1093 66.5191 19.9707 66.4627 19.832H66.4367C66.4541 20.0097 66.4714 20.209 66.4887 20.43C66.5104 20.6467 66.5212 20.8503 66.5212 21.041V22.4645H65.9167Z" fill="black"/>
<path d="M71.5446 22.5425C71.2239 22.5425 70.9336 22.4753 70.6736 22.341C70.4179 22.2067 70.2164 22.0095 70.0691 21.7495C69.9217 21.4852 69.8481 21.1623 69.8481 20.781C69.8481 20.4083 69.9239 20.0898 70.0756 19.8255C70.2316 19.5568 70.4396 19.3532 70.6996 19.2145C70.9639 19.0715 71.2586 19 71.5836 19C71.8349 19 72.0472 19.0412 72.2206 19.1235C72.3939 19.2058 72.5391 19.312 72.6561 19.442L72.3051 19.8255C72.2141 19.7388 72.1122 19.6695 71.9996 19.6175C71.8912 19.5655 71.7547 19.5395 71.5901 19.5395C71.2651 19.5395 71.0051 19.6478 70.8101 19.8645C70.6151 20.0812 70.5176 20.3867 70.5176 20.781C70.5176 21.158 70.6086 21.457 70.7906 21.678C70.9769 21.899 71.2477 22.0095 71.6031 22.0095C71.7157 22.0095 71.8176 21.9965 71.9086 21.9705C71.9995 21.9445 72.0776 21.9077 72.1426 21.86V21.119H71.4601V20.6185H72.7211V22.1525C72.5911 22.2652 72.4242 22.3583 72.2206 22.432C72.0212 22.5057 71.7959 22.5425 71.5446 22.5425Z" fill="black"/>
<path d="M1.81482 29V28.0185L3.61112 27.8148H3.92594L5.53705 28.0185V29H1.81482ZM2.75927 29L6.62964 18.9444H8.50001L12.2963 29H9.37038L6.48149 20.8704H6.77779L6.62964 21.4815L3.87038 29H2.75927ZM4.57408 26.1852V25.1481H9.62964V26.1852H4.57408ZM7.66668 29V28.0741L9.55557 27.8519H10.7778L12.9259 28.0741V29H7.66668ZM13.4983 29V28.0185L15.8872 27.8148H16.1649V29H13.4983ZM14.7761 29C14.8007 28.2346 14.8131 27.463 14.8131 26.6852C14.8131 25.8951 14.8131 25.1111 14.8131 24.3333V23.6667C14.8131 22.8765 14.8131 22.0926 14.8131 21.3148C14.8131 20.5247 14.8007 19.7407 14.7761 18.963H17.739C17.7143 19.7284 17.6958 20.5062 17.6835 21.2963C17.6835 22.0741 17.6835 22.8642 17.6835 23.6667V24.5185C17.6835 25.1975 17.6835 25.9198 17.6835 26.6852C17.6958 27.4506 17.7143 28.2222 17.739 29H14.7761ZM15.9057 20.1481L13.4983 19.9444V18.963H19.1279V19.9444L16.6835 20.1481H15.9057ZM16.2946 29V27.9815H20.9057L20.6094 28.2407L21.0723 25.963H22.5353L22.3316 29H16.2946ZM28.6234 29.2778C27.9321 29.2778 27.2592 29.1728 26.6049 28.963C25.9629 28.7407 25.3827 28.4136 24.8642 27.9815C24.358 27.537 23.9568 26.9815 23.6605 26.3148C23.3642 25.6481 23.216 24.8704 23.216 23.9815C23.216 23.0926 23.3642 22.321 23.6605 21.6667C23.9691 21 24.3765 20.4444 24.8827 20C25.3889 19.5556 25.9629 19.2222 26.6049 19C27.2592 18.7778 27.9321 18.6667 28.6234 18.6667C29.3271 18.6667 30 18.7778 30.6419 19C31.2839 19.2222 31.858 19.5494 32.3642 19.9815C32.8703 20.4136 33.2716 20.963 33.5679 21.6296C33.8765 22.2963 34.0308 23.0741 34.0308 23.963C34.0308 24.8519 33.8827 25.6296 33.5864 26.2963C33.2901 26.963 32.8827 27.5185 32.3642 27.963C31.858 28.3951 31.2839 28.7222 30.6419 28.9444C30 29.1667 29.3271 29.2778 28.6234 29.2778ZM28.6234 28.2407C29.0555 28.2407 29.4197 28.1358 29.716 27.9259C30.0123 27.716 30.253 27.4198 30.4382 27.037C30.6234 26.642 30.7592 26.1852 30.8456 25.6667C30.9444 25.1481 30.9938 24.5864 30.9938 23.9815C30.9938 23.3765 30.9444 22.8148 30.8456 22.2963C30.7592 21.7778 30.6234 21.3272 30.4382 20.9444C30.253 20.5494 30.0123 20.2469 29.716 20.037C29.4197 19.8148 29.0555 19.7037 28.6234 19.7037C28.2037 19.7037 27.8456 19.8148 27.5493 20.037C27.253 20.2469 27.0061 20.5494 26.8086 20.9444C26.6234 21.3272 26.4876 21.7778 26.4012 22.2963C26.3148 22.8025 26.2716 23.3642 26.2716 23.9815C26.2716 24.5741 26.3148 25.1358 26.4012 25.6667C26.4876 26.1852 26.6234 26.642 26.8086 27.037C27.0061 27.4198 27.253 27.716 27.5493 27.9259C27.8456 28.1358 28.2037 28.2407 28.6234 28.2407ZM40.4204 29.2778C39.5933 29.2778 38.8525 29.142 38.1982 28.8704C37.5439 28.5988 37.0315 28.1728 36.6612 27.5926C36.2908 27 36.1056 26.216 36.1056 25.2407V23.5C36.1056 23.0062 36.1056 22.5062 36.1056 22C36.1056 21.4938 36.0994 20.9877 36.0871 20.4815C36.0871 19.963 36.0748 19.4568 36.0501 18.963H39.0315C39.0192 19.4568 39.0069 19.9568 38.9945 20.463C38.9822 20.9691 38.976 21.4753 38.976 21.9815C38.976 22.4877 38.976 22.9938 38.976 23.5V24.7222C38.976 25.4877 39.0624 26.0988 39.2353 26.5556C39.4204 27 39.6859 27.321 40.0315 27.5185C40.3896 27.716 40.8278 27.8148 41.3464 27.8148C41.8402 27.8148 42.2599 27.7099 42.6056 27.5C42.9636 27.2901 43.2353 26.9568 43.4204 26.5C43.618 26.0309 43.7167 25.4259 43.7167 24.6852L43.7353 18.963H44.939L44.9575 24.7037C44.9575 25.7778 44.7785 26.6543 44.4204 27.3333C44.0624 28 43.5439 28.4938 42.8649 28.8148C42.1859 29.1235 41.3711 29.2778 40.4204 29.2778ZM34.8464 19.9444V18.963H40.4019V19.9444L37.9575 20.1481H37.2908L34.8464 19.9444ZM42.2538 19.9444V18.963H46.2908V19.9444L44.5315 20.037H44.0501L42.2538 19.9444Z" fill="black"/>
<path d="M40 35V47" stroke="black" stroke-width="1.5"/>
<path d="M40 1V13" stroke="black" stroke-width="1.5"/>
<path d="M7 35V47" stroke="black" stroke-width="1.5"/>
<path d="M7 1V13" stroke="black" stroke-width="1.5"/>
<path d="M18 35V47" stroke="black" stroke-width="1.5"/>
<path d="M18 1V13" stroke="black" stroke-width="1.5"/>
<path d="M29 35V47" stroke="black" stroke-width="1.5"/>
<path d="M29 1V13" stroke="black" stroke-width="1.5"/>
<path d="M54.6705 28.5425C54.3498 28.5425 54.0682 28.471 53.8255 28.328C53.5872 28.185 53.3987 27.9813 53.26 27.717C53.1213 27.4483 53.052 27.1298 53.052 26.7615C53.052 26.3888 53.1213 26.0725 53.26 25.8125C53.3987 25.5482 53.5872 25.3467 53.8255 25.208C54.0682 25.0693 54.3498 25 54.6705 25C54.9825 25 55.2598 25.0715 55.5025 25.2145C55.7452 25.3532 55.9337 25.5525 56.068 25.8125C56.2067 26.0725 56.276 26.3888 56.276 26.7615C56.276 27.1298 56.2067 27.4483 56.068 27.717C55.9337 27.9813 55.7452 28.185 55.5025 28.328C55.2598 28.471 54.9825 28.5425 54.6705 28.5425ZM54.6705 28.0355C54.8612 28.0355 55.0258 27.9857 55.1645 27.886C55.3032 27.782 55.4115 27.6347 55.4895 27.444C55.5675 27.2533 55.6065 27.0258 55.6065 26.7615C55.6065 26.3802 55.522 26.0833 55.353 25.871C55.184 25.6543 54.9565 25.546 54.6705 25.546C54.3802 25.546 54.1483 25.6543 53.975 25.871C53.806 26.0833 53.7215 26.3802 53.7215 26.7615C53.7215 27.0258 53.7605 27.2533 53.8385 27.444C53.9165 27.6347 54.0248 27.782 54.1635 27.886C54.3065 27.9857 54.4755 28.0355 54.6705 28.0355Z" fill="black"/>
<path d="M58.8547 28.5425C58.5817 28.5425 58.3391 28.4927 58.1267 28.393C57.9187 28.2933 57.7562 28.133 57.6392 27.912C57.5222 27.6867 57.4637 27.3877 57.4637 27.015V25.078H58.1137V27.028C58.1137 27.275 58.1441 27.47 58.2047 27.613C58.2654 27.7517 58.3521 27.8513 58.4647 27.912C58.5774 27.9727 58.7074 28.003 58.8547 28.003C59.0021 28.003 59.1299 27.9727 59.2382 27.912C59.3509 27.8513 59.4376 27.7517 59.4982 27.613C59.5632 27.47 59.5957 27.275 59.5957 27.028V25.078H60.2132V27.015C60.2132 27.3877 60.1547 27.6867 60.0377 27.912C59.9251 28.133 59.7669 28.2933 59.5632 28.393C59.3639 28.4927 59.1277 28.5425 58.8547 28.5425Z" fill="black"/>
<path d="M61.0134 28.4645L62.1964 25.078H62.9439L64.1269 28.4645H63.4444L62.8854 26.677C62.8291 26.495 62.7749 26.313 62.7229 26.131C62.6752 25.9447 62.6232 25.7627 62.5669 25.585H62.5409C62.4889 25.767 62.4369 25.949 62.3849 26.131C62.3372 26.313 62.2874 26.495 62.2354 26.677L61.6699 28.4645H61.0134ZM61.7154 27.5935V27.0865H63.4184V27.5935H61.7154Z" fill="black"/>
<path d="M65.0077 28.4645V25.078H66.2297C66.4811 25.078 66.7064 25.1105 66.9057 25.1755C67.1094 25.2362 67.2697 25.3402 67.3867 25.4875C67.5081 25.6348 67.5687 25.8385 67.5687 26.0985C67.5687 26.3282 67.5102 26.5253 67.3932 26.69C67.2762 26.8547 67.1181 26.9782 66.9187 27.0605C66.7194 27.1428 66.4941 27.184 66.2427 27.184H65.6577V28.4645H65.0077ZM65.6577 26.69H66.1647C66.4291 26.69 66.6241 26.6445 66.7497 26.5535C66.8797 26.4582 66.9447 26.3152 66.9447 26.1245C66.9447 25.9338 66.8754 25.8017 66.7367 25.728C66.6024 25.6543 66.4117 25.6175 66.1647 25.6175H65.6577V26.69ZM67.0032 28.4645L66.1257 27.002L66.6912 26.8395L67.7052 28.4645H67.0032Z" fill="black"/>
<path d="M69.3662 28.4645V25.6175H68.3262V25.078H71.0497V25.6175H70.0162V28.4645H69.3662Z" fill="black"/>
<path d="M72.107 28.4645V25.078H74.2845V25.6175H72.757V26.4365H74.057V26.9695H72.757V27.925H74.3495V28.4645H72.107Z" fill="black"/>
<path d="M76.1861 28.4645V25.6175H75.1461V25.078H77.8696V25.6175H76.8361V28.4645H76.1861Z" fill="black"/>
<path d="M55.7709 27.7897L55.4633 28.2803L56.426 28.8838L56.7336 28.3932L55.7709 27.7897Z" fill="black"/>
</svg>
