<svg width="47" height="48" viewBox="0 0 47 48" fill="none" xmlns="http://www.w3.org/2000/svg">
<g clip-path="url(#clip0_55_71)">
<rect width="47" height="48" fill="none"/>
<path d="M40 35V47" stroke="black" stroke-width="1.5"/>
<path d="M40 1V13" stroke="black" stroke-width="1.5"/>
<path d="M7 35V47" stroke="black" stroke-width="1.5"/>
<path d="M7 1V13" stroke="black" stroke-width="1.5"/>
<path d="M18 35V47" stroke="black" stroke-width="1.5"/>
<path d="M18 1V13" stroke="black" stroke-width="1.5"/>
<path d="M29 35V47" stroke="black" stroke-width="1.5"/>
<path d="M29 1V13" stroke="black" stroke-width="1.5"/>
<path d="M1.81482 29V28.0185L3.61112 27.8148H3.92594L5.53705 28.0185V29H1.81482ZM2.75927 29L6.62964 18.9444H8.50001L12.2963 29H9.37038L6.48149 20.8704H6.77779L6.62964 21.4815L3.87038 29H2.75927ZM4.57408 26.1852V25.1481H9.62964V26.1852H4.57408ZM7.66668 29V28.0741L9.55557 27.8519H10.7778L12.9259 28.0741V29H7.66668ZM13.4983 29V28.0185L15.8872 27.8148H16.1649V29H13.4983ZM14.7761 29C14.8007 28.2346 14.8131 27.463 14.8131 26.6852C14.8131 25.8951 14.8131 25.1111 14.8131 24.3333V23.6667C14.8131 22.8765 14.8131 22.0926 14.8131 21.3148C14.8131 20.5247 14.8007 19.7407 14.7761 18.963H17.739C17.7143 19.7284 17.6958 20.5062 17.6835 21.2963C17.6835 22.0741 17.6835 22.8642 17.6835 23.6667V24.5185C17.6835 25.1975 17.6835 25.9198 17.6835 26.6852C17.6958 27.4506 17.7143 28.2222 17.739 29H14.7761ZM15.9057 20.1481L13.4983 19.9444V18.963H19.1279V19.9444L16.6835 20.1481H15.9057ZM16.2946 29V27.9815H20.9057L20.6094 28.2407L21.0723 25.963H22.5353L22.3316 29H16.2946ZM28.6234 29.2778C27.9321 29.2778 27.2592 29.1728 26.6049 28.963C25.9629 28.7407 25.3827 28.4136 24.8642 27.9815C24.358 27.537 23.9568 26.9815 23.6605 26.3148C23.3642 25.6481 23.216 24.8704 23.216 23.9815C23.216 23.0926 23.3642 22.321 23.6605 21.6667C23.9691 21 24.3765 20.4444 24.8827 20C25.3889 19.5556 25.9629 19.2222 26.6049 19C27.2592 18.7778 27.9321 18.6667 28.6234 18.6667C29.3271 18.6667 30 18.7778 30.6419 19C31.2839 19.2222 31.858 19.5494 32.3642 19.9815C32.8703 20.4136 33.2716 20.963 33.5679 21.6296C33.8765 22.2963 34.0308 23.0741 34.0308 23.963C34.0308 24.8519 33.8827 25.6296 33.5864 26.2963C33.2901 26.963 32.8827 27.5185 32.3642 27.963C31.858 28.3951 31.2839 28.7222 30.6419 28.9444C30 29.1667 29.3271 29.2778 28.6234 29.2778ZM28.6234 28.2407C29.0555 28.2407 29.4197 28.1358 29.716 27.9259C30.0123 27.716 30.253 27.4198 30.4382 27.037C30.6234 26.642 30.7592 26.1852 30.8456 25.6667C30.9444 25.1481 30.9938 24.5864 30.9938 23.9815C30.9938 23.3765 30.9444 22.8148 30.8456 22.2963C30.7592 21.7778 30.6234 21.3272 30.4382 20.9444C30.253 20.5494 30.0123 20.2469 29.716 20.037C29.4197 19.8148 29.0555 19.7037 28.6234 19.7037C28.2037 19.7037 27.8456 19.8148 27.5493 20.037C27.253 20.2469 27.0061 20.5494 26.8086 20.9444C26.6234 21.3272 26.4876 21.7778 26.4012 22.2963C26.3148 22.8025 26.2716 23.3642 26.2716 23.9815C26.2716 24.5741 26.3148 25.1358 26.4012 25.6667C26.4876 26.1852 26.6234 26.642 26.8086 27.037C27.0061 27.4198 27.253 27.716 27.5493 27.9259C27.8456 28.1358 28.2037 28.2407 28.6234 28.2407ZM40.4204 29.2778C39.5933 29.2778 38.8525 29.142 38.1982 28.8704C37.5439 28.5988 37.0315 28.1728 36.6612 27.5926C36.2908 27 36.1056 26.216 36.1056 25.2407V23.5C36.1056 23.0062 36.1056 22.5062 36.1056 22C36.1056 21.4938 36.0994 20.9877 36.0871 20.4815C36.0871 19.963 36.0748 19.4568 36.0501 18.963H39.0315C39.0192 19.4568 39.0069 19.9568 38.9945 20.463C38.9822 20.9691 38.976 21.4753 38.976 21.9815C38.976 22.4877 38.976 22.9938 38.976 23.5V24.7222C38.976 25.4877 39.0624 26.0988 39.2353 26.5556C39.4204 27 39.6859 27.321 40.0315 27.5185C40.3896 27.716 40.8278 27.8148 41.3464 27.8148C41.8402 27.8148 42.2599 27.7099 42.6056 27.5C42.9636 27.2901 43.2353 26.9568 43.4204 26.5C43.618 26.0309 43.7167 25.4259 43.7167 24.6852L43.7353 18.963H44.939L44.9575 24.7037C44.9575 25.7778 44.7785 26.6543 44.4204 27.3333C44.0624 28 43.5439 28.4938 42.8649 28.8148C42.1859 29.1235 41.3711 29.2778 40.4204 29.2778ZM34.8464 19.9444V18.963H40.4019V19.9444L37.9575 20.1481H37.2908L34.8464 19.9444ZM42.2538 19.9444V18.963H46.2908V19.9444L44.5315 20.037H44.0501L42.2538 19.9444Z" fill="black"/>
</g>
<defs>
<clipPath id="clip0_55_71">
<rect width="47" height="48" fill="white"/>
</clipPath>
</defs>
</svg>
