<?xml version="1.0" standalone="no"?>
<!DOCTYPE svg PUBLIC "-//W3C//DTD SVG 20010904//EN"
 "http://www.w3.org/TR/2001/REC-SVG-20010904/DTD/svg10.dtd">
<svg version="1.0" xmlns="http://www.w3.org/2000/svg"
 width="768.000000pt" height="768.000000pt" viewBox="0 0 768.000000 768.000000"
 preserveAspectRatio="xMidYMid meet">
<metadata>
Created by potrace 1.14, written by Peter Selinger 2001-2017
</metadata>
<g transform="translate(0.000000,768.000000) scale(0.100000,-0.100000)"
fill="#000000" stroke="none">
<path d="M1080 6560 l0 -960 120 0 120 0 0 960 0 960 -120 0 -120 0 0 -960z"/>
<path d="M2840 6560 l0 -960 120 0 120 0 0 960 0 960 -120 0 -120 0 0 -960z"/>
<path d="M4600 6560 l0 -960 120 0 120 0 0 960 0 960 -120 0 -120 0 0 -960z"/>
<path d="M6360 6560 l0 -960 120 0 120 0 0 960 0 960 -120 0 -120 0 0 -960z"/>
<path d="M4510 4684 c-242 -46 -414 -143 -544 -307 -75 -94 -124 -202 -152
-332 -20 -95 -20 -308 1 -410 66 -325 309 -556 650 -620 134 -26 349 -17 468
19 320 96 527 324 577 638 18 113 8 342 -20 438 -63 218 -200 382 -405 485
-135 67 -221 87 -400 90 -82 2 -161 1 -175 -1z m287 -190 c157 -76 239 -304
237 -659 0 -187 -16 -294 -61 -418 -32 -89 -58 -132 -113 -181 -62 -56 -101
-70 -200 -70 -73 0 -92 4 -136 26 -138 72 -210 233 -235 524 -23 283 26 551
128 689 86 117 247 155 380 89z"/>
<path d="M1127 4613 c-8 -21 -131 -339 -272 -708 -142 -368 -260 -673 -264
-677 -3 -4 -54 -12 -113 -19 l-108 -12 0 -78 0 -79 300 0 301 0 -3 78 -3 77
-95 14 c-52 7 -97 15 -98 17 -2 1 18 61 44 133 l48 131 277 0 277 0 16 -42
c49 -133 76 -213 76 -224 0 -7 -36 -16 -100 -24 l-100 -12 0 -74 0 -74 420 0
420 0 0 74 0 74 -82 8 -83 9 -272 720 -271 720 -150 3 -150 3 -15 -38z m128
-660 l102 -288 -210 -3 c-115 -1 -212 -1 -214 1 -2 2 45 135 103 296 59 160
109 289 112 286 3 -2 51 -134 107 -292z"/>
<path d="M2240 4571 l0 -79 48 -6 c26 -3 73 -8 105 -11 l57 -6 -2 -627 -3
-627 -102 -9 -103 -8 0 -79 0 -79 705 0 c388 0 705 1 706 3 4 12 33 480 30
483 -2 2 -53 4 -113 4 -93 0 -110 -2 -115 -17 -4 -10 -21 -83 -38 -163 l-30
-145 -235 0 -235 0 -3 632 -2 631 67 7 c38 3 90 8 116 11 l48 6 -3 76 -3 77
-447 3 -448 2 0 -79z"/>
<path d="M5660 4570 c0 -44 3 -80 8 -81 103 -8 174 -18 179 -23 4 -4 10 -231
13 -504 l6 -497 26 -77 c14 -43 40 -100 58 -128 68 -106 197 -194 345 -235 91
-26 346 -32 457 -11 266 50 423 193 494 446 16 57 18 121 22 543 l3 477 48 0
c27 0 76 3 110 6 l62 7 -3 76 -3 76 -320 0 -320 0 -3 -77 -3 -76 83 -6 c46 -3
99 -7 118 -9 l35 -2 3 -265 c4 -371 -10 -646 -37 -732 -35 -109 -121 -202
-214 -230 -53 -16 -219 -16 -273 0 -95 28 -165 100 -206 212 -23 64 -23 71
-26 536 l-3 472 63 6 c35 4 84 9 111 12 l47 6 0 79 0 79 -440 0 -440 0 0 -80z"/>
<path d="M1080 1120 l0 -960 120 0 120 0 0 960 0 960 -120 0 -120 0 0 -960z"/>
<path d="M2840 1120 l0 -960 120 0 120 0 0 960 0 960 -120 0 -120 0 0 -960z"/>
<path d="M4600 1120 l0 -960 120 0 120 0 0 960 0 960 -120 0 -120 0 0 -960z"/>
<path d="M6360 1120 l0 -960 120 0 120 0 0 960 0 960 -120 0 -120 0 0 -960z"/>
</g>
</svg>
